<svg width="110" height="111" viewBox="0 0 110 111" fill="none" xmlns="http://www.w3.org/2000/svg">
<path fill-rule="evenodd" clip-rule="evenodd" d="M40.833 59.5198L25.3832 54.3699C9.20497 48.9771 1.11572 46.2807 1.11572 41.3255C1.11572 36.3703 9.2049 33.6739 25.3833 28.2811L83.9114 8.77175C95.295 4.97727 100.987 3.08001 103.991 6.08449C106.996 9.08896 105.098 14.7808 101.304 26.1643L81.7946 84.6925C76.4018 100.871 73.7055 108.96 68.75 108.96C63.7948 108.96 61.0984 100.871 55.7057 84.6925L50.5558 69.2423L80.4863 39.3119C83.171 36.627 83.171 32.274 80.4863 29.5892C77.8016 26.9043 73.4483 26.9043 70.7636 29.5892L40.833 59.5198Z" fill="#2F7BBD"/>
</svg>
