<svg width="110" height="111" viewBox="0 0 110 111" fill="none" xmlns="http://www.w3.org/2000/svg">
<path fill-rule="evenodd" clip-rule="evenodd" d="M44.1557 57.5181L30.0913 52.8745C15.3639 48.012 8 45.5808 8 41.1128C8 36.6448 15.3638 34.2136 30.0914 29.3511L83.3711 11.76C93.7339 8.33865 98.9153 6.62795 101.65 9.337C104.385 12.046 102.658 17.1782 99.2038 27.4424L81.4441 80.2155C76.5349 94.803 74.0804 102.097 69.5692 102.097C65.0584 102.097 62.6039 94.803 57.6947 80.2155L53.0066 66.2846L80.2531 39.2972C82.6971 36.8763 82.6971 32.9513 80.2531 30.5305C77.8092 28.1096 73.8463 28.1096 71.4024 30.5305L44.1557 57.5181Z" fill="#2F7BBD"/>
</svg>
