<svg width="200" height="85" viewBox="0 0 200 85" fill="none" xmlns="http://www.w3.org/2000/svg">
<path d="M77.5929 74.7713C77.9929 75.2571 78.4264 75.5999 78.8929 75.7999C79.3692 75.9999 79.8692 76.0999 80.3929 76.0999C80.9358 76.0999 81.4215 76.0048 81.85 75.8142C82.288 75.6142 82.6594 75.3093 82.9643 74.8999C83.2692 74.4807 83.5023 73.9521 83.6643 73.3142C83.8264 72.6664 83.9072 71.895 83.9072 70.9999C83.9072 69.3905 83.6407 68.2285 83.1072 67.5142C82.5737 66.7905 81.8072 66.4285 80.8072 66.4285C80.1308 66.4285 79.5407 66.5856 79.0358 66.8999C78.5308 67.2048 78.05 67.6379 77.5929 68.1999V74.7713ZM77.5929 65.7142C78.1835 65.095 78.8358 64.6048 79.55 64.2428C80.2737 63.8713 81.0978 63.6856 82.0215 63.6856C82.8692 63.6856 83.6308 63.8521 84.3072 64.1856C84.9929 64.5191 85.5737 64.9999 86.05 65.6285C86.5358 66.2477 86.9072 66.9999 87.1643 67.8856C87.4215 68.7713 87.55 69.7664 87.55 70.8713C87.55 72.062 87.4023 73.1428 87.1072 74.1142C86.8121 75.0856 86.388 75.9191 85.8358 76.6142C85.2929 77.2999 84.6358 77.8334 83.8643 78.2142C83.0929 78.595 82.2358 78.7856 81.2929 78.7856C80.8358 78.7856 80.4215 78.7379 80.05 78.6428C79.6786 78.5571 79.3358 78.4334 79.0215 78.2713C78.7072 78.1093 78.4166 77.9142 78.15 77.6856C77.8929 77.4477 77.6451 77.1856 77.4072 76.8999L77.25 77.8856C77.1929 78.1334 77.0929 78.3093 76.95 78.4142C76.8166 78.5191 76.6308 78.5713 76.3929 78.5713H74.0643V57.3428H77.5929V65.7142ZM93.8469 57.3428V78.5713H90.3179V57.3428H93.8469ZM105.105 72.3142C104.086 72.362 103.229 72.4521 102.534 72.5856C101.838 72.7093 101.281 72.8713 100.863 73.0713C100.443 73.2713 100.143 73.5048 99.9625 73.7713C99.7813 74.0379 99.6911 74.3285 99.6911 74.6428C99.6911 75.262 99.8719 75.7048 100.234 75.9713C100.605 76.2379 101.086 76.3713 101.677 76.3713C102.4 76.3713 103.024 76.2428 103.548 75.9856C104.081 75.7191 104.6 75.3191 105.105 74.7856V72.3142ZM97.0197 65.9571C98.7054 64.4142 100.734 63.6428 103.105 63.6428C103.963 63.6428 104.729 63.7856 105.405 64.0713C106.081 64.3477 106.653 64.7379 107.12 65.2428C107.586 65.7379 107.938 66.3334 108.177 67.0285C108.424 67.7236 108.548 68.4856 108.548 69.3142V78.5713H106.948C106.615 78.5713 106.358 78.5236 106.177 78.4285C105.996 78.3236 105.853 78.1191 105.748 77.8142L105.434 76.7571C105.063 77.0905 104.7 77.3856 104.348 77.6428C103.996 77.8905 103.629 78.0999 103.248 78.2713C102.867 78.4428 102.458 78.5713 102.02 78.6571C101.591 78.7521 101.115 78.7999 100.591 78.7999C99.9719 78.7999 99.4005 78.7191 98.8768 78.5571C98.3527 78.3856 97.9005 78.1334 97.5197 77.7999C97.1384 77.4664 96.8433 77.0522 96.634 76.5571C96.4242 76.062 96.3197 75.4856 96.3197 74.8285C96.3197 74.4571 96.3813 74.0905 96.5054 73.7285C96.6291 73.3571 96.8291 73.0048 97.1054 72.6713C97.3911 72.3379 97.7576 72.0236 98.2054 71.7285C98.6527 71.4334 99.2005 71.1763 99.8483 70.9571C100.505 70.7379 101.267 70.562 102.134 70.4285C103 70.2856 103.991 70.1999 105.105 70.1713V69.3142C105.105 68.3334 104.896 67.6093 104.477 67.1428C104.058 66.6664 103.453 66.4285 102.663 66.4285C102.091 66.4285 101.615 66.495 101.234 66.6285C100.863 66.762 100.534 66.9142 100.248 67.0856C99.9625 67.2477 99.7005 67.395 99.4625 67.5285C99.234 67.662 98.9768 67.7285 98.6911 67.7285C98.4433 67.7285 98.234 67.6664 98.0625 67.5428C97.8911 67.4093 97.7527 67.2571 97.6483 67.0856L97.0197 65.9571ZM122.371 67.0142C122.267 67.1477 122.162 67.2521 122.057 67.3285C121.962 67.4048 121.819 67.4428 121.629 67.4428C121.447 67.4428 121.271 67.3905 121.1 67.2856C120.929 67.1713 120.724 67.0477 120.486 66.9142C120.247 66.7713 119.962 66.6477 119.629 66.5428C119.305 66.4285 118.9 66.3713 118.414 66.3713C117.795 66.3713 117.252 66.4856 116.786 66.7142C116.319 66.9334 115.929 67.2521 115.614 67.6713C115.309 68.0905 115.081 68.5999 114.929 69.1999C114.776 69.7905 114.7 70.462 114.7 71.2142C114.7 71.995 114.781 72.6905 114.943 73.2999C115.114 73.9093 115.357 74.4236 115.671 74.8428C115.986 75.2521 116.367 75.5664 116.814 75.7856C117.262 75.995 117.767 76.0999 118.329 76.0999C118.89 76.0999 119.343 76.0334 119.686 75.8999C120.038 75.7571 120.333 75.6048 120.571 75.4428C120.809 75.2713 121.014 75.1191 121.186 74.9856C121.367 74.8428 121.567 74.7713 121.786 74.7713C122.071 74.7713 122.286 74.8807 122.429 75.0999L123.443 76.3856C123.052 76.8428 122.629 77.2285 122.171 77.5428C121.714 77.8477 121.238 78.095 120.743 78.2856C120.257 78.4664 119.752 78.595 119.229 78.6713C118.714 78.7477 118.2 78.7856 117.686 78.7856C116.781 78.7856 115.929 78.6191 115.129 78.2856C114.329 77.9428 113.629 77.4477 113.029 76.7999C112.429 76.1521 111.952 75.362 111.6 74.4285C111.257 73.4856 111.086 72.4142 111.086 71.2142C111.086 70.1379 111.238 69.1428 111.543 68.2285C111.857 67.3048 112.314 66.5093 112.914 65.8428C113.514 65.1664 114.257 64.6379 115.143 64.2571C116.029 63.8763 117.047 63.6856 118.2 63.6856C119.295 63.6856 120.252 63.862 121.071 64.2142C121.9 64.5664 122.643 65.0713 123.3 65.7285L122.371 67.0142ZM129.184 57.3428V69.4999H129.841C130.079 69.4999 130.264 69.4713 130.398 69.4142C130.541 69.3477 130.684 69.2191 130.826 69.0285L134.469 64.5285C134.621 64.3285 134.788 64.1763 134.969 64.0713C135.159 63.9664 135.402 63.9142 135.698 63.9142H138.926L134.369 69.3571C134.045 69.7856 133.693 70.1142 133.312 70.3428C133.512 70.4856 133.688 70.6522 133.841 70.8428C134.002 71.0334 134.155 71.2379 134.298 71.4571L139.184 78.5713H135.998C135.721 78.5713 135.484 78.5285 135.284 78.4428C135.084 78.3477 134.917 78.1807 134.784 77.9428L131.041 72.3856C130.907 72.1664 130.769 72.0236 130.626 71.9571C130.484 71.8905 130.269 71.8571 129.984 71.8571H129.184V78.5713H125.655V57.3428H129.184ZM159.817 68.2428C159.817 69.7571 159.565 71.1477 159.06 72.4142C158.555 73.6807 157.846 74.7713 156.931 75.6856C156.017 76.5999 154.917 77.3093 153.631 77.8142C152.346 78.3191 150.917 78.5713 149.346 78.5713H141.474V57.9142H149.346C150.917 57.9142 152.346 58.1713 153.631 58.6856C154.917 59.1905 156.017 59.8999 156.931 60.8142C157.846 61.7191 158.555 62.8048 159.06 64.0713C159.565 65.3379 159.817 66.7285 159.817 68.2428ZM155.874 68.2428C155.874 67.1093 155.722 66.095 155.417 65.1999C155.122 64.295 154.688 63.5334 154.117 62.9142C153.555 62.2856 152.869 61.8048 152.06 61.4713C151.26 61.1379 150.355 60.9713 149.346 60.9713H145.331V75.5142H149.346C150.355 75.5142 151.26 75.3477 152.06 75.0142C152.869 74.6807 153.555 74.2048 154.117 73.5856C154.688 72.9571 155.122 72.195 155.417 71.2999C155.722 70.395 155.874 69.3763 155.874 68.2428ZM168.943 63.6856C170.029 63.6856 171.014 63.862 171.9 64.2142C172.795 64.5664 173.557 65.0664 174.186 65.7142C174.824 66.362 175.314 67.1521 175.657 68.0856C176 69.0191 176.171 70.062 176.171 71.2142C176.171 72.3763 176 73.4236 175.657 74.3571C175.314 75.2905 174.824 76.0856 174.186 76.7428C173.557 77.3999 172.795 77.9048 171.9 78.2571C171.014 78.6093 170.029 78.7856 168.943 78.7856C167.848 78.7856 166.852 78.6093 165.957 78.2571C165.062 77.9048 164.295 77.3999 163.657 76.7428C163.029 76.0856 162.538 75.2905 162.186 74.3571C161.843 73.4236 161.671 72.3763 161.671 71.2142C161.671 70.062 161.843 69.0191 162.186 68.0856C162.538 67.1521 163.029 66.362 163.657 65.7142C164.295 65.0664 165.062 64.5664 165.957 64.2142C166.852 63.862 167.848 63.6856 168.943 63.6856ZM168.943 76.0713C170.162 76.0713 171.062 75.662 171.643 74.8428C172.234 74.0236 172.529 72.8236 172.529 71.2428C172.529 69.662 172.234 68.4571 171.643 67.6285C171.062 66.7999 170.162 66.3856 168.943 66.3856C167.705 66.3856 166.786 66.8048 166.186 67.6428C165.595 68.4713 165.3 69.6713 165.3 71.2428C165.3 72.8142 165.595 74.0142 166.186 74.8428C166.786 75.662 167.705 76.0713 168.943 76.0713ZM184.109 70.8856C184.547 70.8856 184.928 70.8285 185.252 70.7142C185.575 70.5905 185.842 70.4236 186.052 70.2142C186.271 70.0048 186.433 69.7521 186.538 69.4571C186.652 69.162 186.709 68.8379 186.709 68.4856C186.709 67.762 186.49 67.1905 186.052 66.7713C185.623 66.3428 184.975 66.1285 184.109 66.1285C183.242 66.1285 182.59 66.3428 182.152 66.7713C181.723 67.1905 181.509 67.762 181.509 68.4856C181.509 68.8285 181.561 69.1477 181.666 69.4428C181.78 69.7379 181.942 69.995 182.152 70.2142C182.371 70.4236 182.642 70.5905 182.966 70.7142C183.3 70.8285 183.68 70.8856 184.109 70.8856ZM188.095 79.2285C188.095 78.9428 188.009 78.7093 187.838 78.5285C187.666 78.3477 187.433 78.2093 187.138 78.1142C186.842 78.0093 186.495 77.9334 186.095 77.8856C185.704 77.8379 185.285 77.8048 184.838 77.7856C184.4 77.7571 183.942 77.7334 183.466 77.7142C183 77.695 182.542 77.6571 182.095 77.5999C181.704 77.8191 181.385 78.0763 181.138 78.3713C180.9 78.6664 180.78 79.0093 180.78 79.3999C180.78 79.6571 180.842 79.895 180.966 80.1142C181.1 80.3428 181.304 80.5379 181.58 80.6999C181.866 80.862 182.233 80.9856 182.68 81.0713C183.128 81.1664 183.675 81.2142 184.323 81.2142C184.98 81.2142 185.547 81.162 186.023 81.0571C186.5 80.962 186.89 80.8236 187.195 80.6428C187.509 80.4713 187.738 80.262 187.88 80.0142C188.023 79.7763 188.095 79.5142 188.095 79.2285ZM191.609 64.4142V65.7285C191.609 66.1477 191.357 66.4048 190.852 66.4999L189.538 66.7428C189.738 67.2477 189.838 67.7999 189.838 68.3999C189.838 69.1236 189.69 69.7807 189.395 70.3713C189.109 70.9522 188.709 71.4477 188.195 71.8571C187.68 72.2664 187.071 72.5856 186.366 72.8142C185.671 73.0334 184.918 73.1428 184.109 73.1428C183.823 73.1428 183.547 73.1285 183.28 73.0999C183.014 73.0713 182.752 73.0334 182.495 72.9856C182.038 73.262 181.809 73.5713 181.809 73.9142C181.809 74.2093 181.942 74.4285 182.209 74.5713C182.485 74.7048 182.847 74.7999 183.295 74.8571C183.742 74.9142 184.252 74.9522 184.823 74.9713C185.395 74.9807 185.98 75.0093 186.58 75.0571C187.18 75.1048 187.766 75.1905 188.338 75.3142C188.909 75.4285 189.418 75.6142 189.866 75.8713C190.314 76.1285 190.671 76.4807 190.938 76.9285C191.214 77.3664 191.352 77.9334 191.352 78.6285C191.352 79.2763 191.19 79.9048 190.866 80.5142C190.552 81.1236 190.09 81.6664 189.48 82.1428C188.88 82.6191 188.138 82.9999 187.252 83.2856C186.375 83.5807 185.375 83.7285 184.252 83.7285C183.147 83.7285 182.185 83.6191 181.366 83.3999C180.547 83.1905 179.866 82.9048 179.323 82.5428C178.78 82.1905 178.375 81.7807 178.109 81.3142C177.842 80.8477 177.709 80.362 177.709 79.8571C177.709 79.1713 177.914 78.5999 178.323 78.1428C178.742 77.6763 179.314 77.3048 180.038 77.0285C179.647 76.8285 179.338 76.562 179.109 76.2285C178.88 75.895 178.766 75.4571 178.766 74.9142C178.766 74.695 178.804 74.4713 178.88 74.2428C178.966 74.0048 179.085 73.7713 179.238 73.5428C179.4 73.3142 179.6 73.0999 179.838 72.8999C180.075 72.6905 180.357 72.5048 180.68 72.3428C179.938 71.9428 179.352 71.4093 178.923 70.7428C178.504 70.0763 178.295 69.295 178.295 68.3999C178.295 67.6763 178.438 67.0236 178.723 66.4428C179.018 65.8521 179.423 65.3521 179.938 64.9428C180.461 64.5236 181.075 64.2048 181.78 63.9856C182.495 63.7664 183.271 63.6571 184.109 63.6571C184.738 63.6571 185.328 63.7236 185.88 63.8571C186.433 63.9807 186.938 64.1664 187.395 64.4142H191.609ZM194.333 82.0713C194.161 81.9285 194.075 81.7522 194.075 81.5428C194.075 81.4664 194.099 81.3807 194.147 81.2856C194.204 81.1905 194.271 81.1048 194.347 81.0285C194.451 80.9142 194.58 80.7713 194.733 80.5999C194.885 80.4379 195.037 80.2477 195.19 80.0285C195.342 79.8191 195.48 79.5856 195.604 79.3285C195.737 79.0807 195.837 78.8142 195.904 78.5285C195.599 78.5285 195.323 78.4763 195.075 78.3713C194.828 78.2571 194.613 78.1048 194.433 77.9142C194.261 77.7236 194.123 77.4999 194.018 77.2428C193.923 76.9856 193.875 76.7048 193.875 76.3999C193.875 76.1334 193.923 75.8856 194.018 75.6571C194.123 75.4191 194.266 75.2142 194.447 75.0428C194.628 74.862 194.847 74.7236 195.104 74.6285C195.361 74.5236 195.642 74.4713 195.947 74.4713C196.309 74.4713 196.623 74.5379 196.89 74.6713C197.166 74.795 197.39 74.9713 197.561 75.1999C197.742 75.4191 197.875 75.6763 197.961 75.9713C198.056 76.2571 198.104 76.562 198.104 76.8856C198.104 77.3428 198.033 77.8236 197.89 78.3285C197.756 78.8334 197.556 79.3379 197.29 79.8428C197.023 80.3477 196.69 80.8379 196.29 81.3142C195.899 81.7905 195.451 82.2285 194.947 82.6285L194.333 82.0713ZM193.775 66.4428C193.775 66.1477 193.828 65.8664 193.933 65.5999C194.047 65.3334 194.199 65.1048 194.39 64.9142C194.58 64.7236 194.809 64.5713 195.075 64.4571C195.342 64.3428 195.628 64.2856 195.933 64.2856C196.237 64.2856 196.518 64.3428 196.775 64.4571C197.042 64.5713 197.271 64.7236 197.461 64.9142C197.661 65.1048 197.818 65.3334 197.933 65.5999C198.047 65.8664 198.104 66.1477 198.104 66.4428C198.104 66.7477 198.047 67.0334 197.933 67.2999C197.818 67.5571 197.661 67.7807 197.461 67.9713C197.271 68.162 197.042 68.3142 196.775 68.4285C196.518 68.5334 196.237 68.5856 195.933 68.5856C195.628 68.5856 195.342 68.5334 195.075 68.4285C194.809 68.3142 194.58 68.162 194.39 67.9713C194.199 67.7807 194.047 67.5571 193.933 67.2999C193.828 67.0334 193.775 66.7477 193.775 66.4428Z" fill="white"/>
<path d="M0 60.4911L44.8661 0V29.6875L23.4518 60.4911L25.6696 78.3482L15.8482 71.4286L0 60.4911Z" fill="white"/>
<path d="M93.9732 17.8571L49.1072 78.3482V48.6607L70.5215 17.8571L68.3036 0L78.125 6.91964L93.9732 17.8571Z" fill="white"/>
</svg>
