<svg width="111" height="110" viewBox="0 0 111 110" fill="none" xmlns="http://www.w3.org/2000/svg">
<path fill-rule="evenodd" clip-rule="evenodd" d="M12.1015 25.6016C9.41663 28.2864 9.41663 32.6077 9.41663 41.2501V68.7501C9.41663 77.3924 9.41663 81.7136 12.1015 84.3985C14.7863 87.0834 19.1075 87.0834 27.75 87.0834H82.75C91.3923 87.0834 95.7135 87.0834 98.3984 84.3985C101.083 81.7136 101.083 77.3924 101.083 68.7501V41.2501C101.083 32.6077 101.083 28.2864 98.3984 25.6016C95.7135 22.9167 91.3923 22.9167 82.75 22.9167H27.75C19.1075 22.9167 14.7863 22.9167 12.1015 25.6016ZM23.1666 32.0834C20.6353 32.0834 18.5833 34.1355 18.5833 36.6667C18.5833 39.198 20.6353 41.2501 23.1666 41.2501H32.3333C34.8646 41.2501 36.9166 39.198 36.9166 36.6667C36.9166 34.1355 34.8646 32.0834 32.3333 32.0834H23.1666ZM73.5833 73.3334C73.5833 70.802 75.6352 68.7501 78.1666 68.7501H87.3333C89.8647 68.7501 91.9166 70.802 91.9166 73.3334C91.9166 75.8648 89.8647 77.9167 87.3333 77.9167H78.1666C75.6352 77.9167 73.5833 75.8648 73.5833 73.3334ZM59.8333 55.0001C59.8333 57.5315 57.7813 59.5834 55.25 59.5834C52.7186 59.5834 50.6666 57.5315 50.6666 55.0001C50.6666 52.4687 52.7186 50.4167 55.25 50.4167C57.7813 50.4167 59.8333 52.4687 59.8333 55.0001ZM69 55.0001C69 62.5942 62.8441 68.7501 55.25 68.7501C47.6558 68.7501 41.5 62.5942 41.5 55.0001C41.5 47.406 47.6558 41.2501 55.25 41.2501C62.8441 41.2501 69 47.406 69 55.0001Z" fill="#2F7BBD"/>
</svg>
