<svg width="120" height="121" viewBox="0 0 120 121" fill="none" xmlns="http://www.w3.org/2000/svg">
<path d="M100 25.0757C102.761 25.0757 105 22.8371 105 20.0757C105 17.3143 102.761 15.0757 100 15.0757V25.0757ZM27.5 25.0757H100V15.0757H27.5V25.0757ZM27.5 50.0757H67.5V40.0757H27.5V50.0757ZM20 32.5757C20 28.4335 23.3579 25.0757 27.5 25.0757V15.0757C17.835 15.0757 10 22.9107 10 32.5757H20ZM10 32.5757C10 42.2407 17.835 50.0757 27.5 50.0757V40.0757C23.3579 40.0757 20 36.7178 20 32.5757H10Z" fill="#2F7BBD"/>
<path d="M15 60.0757V32.5757" stroke="#2F7BBD"/>
<path d="M13.5 36.0757H11V38.5757V88.5757V88.7402C10.9999 90.9567 10.9998 92.8662 11.2054 94.3952C11.4257 96.0342 11.9226 97.6047 13.1967 98.8792C14.4709 100.153 16.0418 100.65 17.6806 100.87C19.2097 101.076 21.1192 101.076 23.3354 101.076H23.5H93.5C93.555 101.076 93.61 101.076 93.6645 101.076C95.881 101.076 97.7905 101.076 99.3195 100.87C100.959 100.65 102.529 100.153 103.803 98.8792C105.077 97.6047 105.575 96.0342 105.795 94.3952C106 92.8662 106 90.9567 106 88.7402C106 88.6857 106 88.6307 106 88.5757V83.5757V81.0757H103.5H88.5C81.5965 81.0757 76 75.4792 76 68.5757C76 61.6722 81.5965 56.0757 88.5 56.0757H103.5H106V53.5757V48.5757V48.4112C106 46.1947 106 44.2852 105.795 42.7562C105.575 41.1174 105.077 39.5465 103.803 38.2724C102.529 36.9982 100.959 36.5014 99.3195 36.281C97.7905 36.0754 95.881 36.0755 93.6645 36.0757H93.5H13.5Z" fill="#2F7BBD" stroke="#2F7BBD"/>
</svg>
