<svg width="111" height="110" viewBox="0 0 111 110" fill="none" xmlns="http://www.w3.org/2000/svg">
<path fill-rule="evenodd" clip-rule="evenodd" d="M57.1003 95.3415C64.546 91.53 91.9167 75.937 91.9167 52.7083C91.9167 32.0833 74.8058 18.3333 55.25 18.3333C36.3496 18.3333 18.5834 32.0833 18.5834 52.7083C18.5834 75.937 45.954 91.53 53.3997 95.3415C54.5772 95.9447 55.9229 95.9447 57.1003 95.3415ZM54.1899 67.6339L41.3632 54.1323C38.7491 51.3805 38.3402 47.2041 40.3709 43.9976C43.7529 38.6576 51.6297 38.9225 54.645 44.4776L54.964 45.0654C55.0873 45.2922 55.4128 45.2922 55.536 45.0654L55.855 44.4776C58.8704 38.9225 66.7473 38.6576 70.1289 43.9976C72.1598 47.2041 71.751 51.3805 69.1371 54.1323L56.3102 67.6339C55.8853 68.0812 55.6726 68.3049 55.4146 68.3567C55.306 68.3787 55.1941 68.3787 55.0855 68.3567C54.8275 68.3049 54.6148 68.0812 54.1899 67.6339Z" fill="#2F7BBD"/>
</svg>
