<svg width="44" height="44" viewBox="0 0 44 44" fill="none" xmlns="http://www.w3.org/2000/svg">
<path d="M21.9982 13.5244C19.7499 13.5244 17.5936 14.4176 16.0038 16.0074C14.414 17.5972 13.5209 19.7534 13.5209 22.0017C13.5209 24.2501 14.414 26.4063 16.0038 27.9961C17.5936 29.5859 19.7499 30.4791 21.9982 30.4791C24.2465 30.4791 26.4028 29.5859 27.9926 27.9961C29.5824 26.4063 30.4755 24.2501 30.4755 22.0017C30.4755 19.7534 29.5824 17.5972 27.9926 16.0074C26.4028 14.4176 24.2465 13.5244 21.9982 13.5244ZM21.9982 27.5072C20.5376 27.5072 19.1368 26.927 18.1039 25.8942C17.0711 24.8614 16.4909 23.4605 16.4909 21.9999C16.4909 20.5393 17.0711 19.1385 18.1039 18.1056C19.1368 17.0728 20.5376 16.4926 21.9982 16.4926C23.4588 16.4926 24.8597 17.0728 25.8925 18.1056C26.9253 19.1385 27.5055 20.5393 27.5055 21.9999C27.5055 23.4605 26.9253 24.8614 25.8925 25.8942C24.8597 26.927 23.4588 27.5072 21.9982 27.5072Z" fill="white"/>
<path d="M30.8111 15.189C31.9025 15.189 32.7874 14.3042 32.7874 13.2127C32.7874 12.1212 31.9025 11.2363 30.8111 11.2363C29.7196 11.2363 28.8347 12.1212 28.8347 13.2127C28.8347 14.3042 29.7196 15.189 30.8111 15.189Z" fill="white"/>
<path d="M37.6438 11.2036C37.2194 10.1076 36.5708 9.1123 35.7396 8.28138C34.9084 7.45047 33.9128 6.80227 32.8167 6.37828C31.5339 5.89677 30.1788 5.6364 28.809 5.60828C27.0435 5.53128 26.4843 5.50928 22.0073 5.50928C17.5303 5.50928 16.9565 5.50928 15.2057 5.60828C13.8369 5.63496 12.4827 5.89538 11.2017 6.37828C10.1052 6.80178 9.1094 7.44981 8.27811 8.28078C7.44682 9.11175 6.79841 10.1073 6.3745 11.2036C5.89289 12.4862 5.63312 13.8415 5.60633 15.2113C5.5275 16.9749 5.50366 17.5341 5.50366 22.0129C5.50366 26.4899 5.50366 27.0601 5.60633 28.8146C5.63383 30.1859 5.89233 31.5389 6.3745 32.8241C6.7996 33.92 7.44864 34.9152 8.28013 35.746C9.11162 36.5769 10.1073 37.2252 11.2035 37.6494C12.4821 38.1503 13.8368 38.4293 15.2093 38.4744C16.9748 38.5514 17.534 38.5753 22.011 38.5753C26.488 38.5753 27.0618 38.5753 28.8127 38.4744C30.1823 38.4466 31.5374 38.1869 32.8203 37.7063C33.9162 37.2813 34.9115 36.6325 35.7426 35.8014C36.5737 34.9703 37.2225 33.975 37.6475 32.8791C38.1297 31.5958 38.3882 30.2428 38.4157 28.8714C38.4945 27.1078 38.5183 26.5486 38.5183 22.0698C38.5183 17.5909 38.5183 17.0226 38.4157 15.2681C38.3943 13.8789 38.1332 12.5039 37.6438 11.2036ZM35.4108 28.6789C35.399 29.7355 35.2062 30.7822 34.8407 31.7736C34.5653 32.4865 34.1438 33.1339 33.6033 33.6742C33.0627 34.2144 32.4151 34.6355 31.702 34.9104C30.7216 35.2743 29.686 35.4671 28.6403 35.4806C26.8987 35.5613 26.4073 35.5814 21.9413 35.5814C17.4717 35.5814 17.0152 35.5814 15.2405 35.4806C14.1954 35.4678 13.1603 35.2749 12.1807 34.9104C11.4651 34.6372 10.8148 34.2169 10.272 33.6765C9.72909 33.1362 9.30569 32.4879 9.02916 31.7736C8.66881 30.7929 8.47607 29.7585 8.45899 28.7138C8.38016 26.9721 8.36183 26.4808 8.36183 22.0148C8.36183 17.5469 8.36183 17.0904 8.45899 15.3139C8.47085 14.258 8.6637 13.2119 9.02916 12.2211C9.58833 10.7746 10.7342 9.63611 12.1807 9.08244C13.1607 8.7197 14.1955 8.52688 15.2405 8.51228C16.984 8.43344 17.4735 8.41144 21.9413 8.41144C26.4092 8.41144 26.8675 8.41144 28.6403 8.51228C29.6861 8.52486 30.7218 8.71774 31.702 9.08244C32.415 9.35794 33.0626 9.77948 33.6031 10.32C34.1436 10.8605 34.5652 11.5081 34.8407 12.2211C35.201 13.2019 35.3938 14.2362 35.4108 15.2809C35.4897 17.0244 35.5098 17.5139 35.5098 21.9818C35.5098 26.4478 35.5098 26.9281 35.431 28.6808H35.4108V28.6789Z" fill="white"/>
</svg>
