<svg width="1281" height="56" viewBox="0 0 1281 56" fill="none" xmlns="http://www.w3.org/2000/svg">
<g clip-path="url(#clip0_42_72)">
<path d="M543.222 1.16675C543.222 0.614463 542.774 0.166748 542.222 0.166748H539.768C539.221 0.166748 538.775 0.606829 538.768 1.15416L538.645 10.9256C538.638 11.4772 538.186 11.919 537.634 11.913L532.823 11.8604C532.271 11.8544 531.828 11.4014 531.834 10.8489L531.885 6.46158C531.891 5.90481 531.442 5.45001 530.885 5.45001H528.455C527.903 5.45001 527.455 5.89773 527.455 6.45001V33.8943C527.455 34.2511 527.646 34.5808 527.954 34.7596L551.751 48.5421C552.061 48.7216 552.444 48.7216 552.754 48.5421L565.373 41.2335C565.682 41.0547 565.872 40.7249 565.872 40.3681V12.9239C565.872 12.3716 565.424 11.9239 564.872 11.9239H558.286C557.733 11.9239 557.286 12.3716 557.286 12.9239V15.5374C557.286 16.0897 557.733 16.5374 558.286 16.5374H560.357C560.909 16.5374 561.357 16.9852 561.357 17.5374V37.7602C561.357 38.1189 561.165 38.4501 560.853 38.6282L552.753 43.2625C552.443 43.4398 552.062 43.4384 551.754 43.2589L532.542 32.0812C532.234 31.9021 532.045 31.5729 532.045 31.2168V17.5374C532.045 16.9852 532.492 16.5374 533.045 16.5374H549.032C549.584 16.5374 550.032 16.9852 550.032 17.5374V31.2205C550.032 31.5746 549.844 31.9023 549.539 32.0821L545.091 34.7036C544.426 35.0954 544.437 36.0604 545.11 36.4375L547.606 37.8361C547.916 38.01 548.296 38.0059 548.602 37.8252L554.055 34.612C554.36 34.4323 554.547 34.1046 554.547 33.7505V6.45001C554.547 5.89773 554.099 5.45001 553.547 5.45001H551.032C550.479 5.45001 550.032 5.89773 550.032 6.45001V10.9239C550.032 11.4762 549.584 11.9239 549.032 11.9239H544.222C543.669 11.9239 543.222 11.4762 543.222 10.9239V1.16675Z" fill="white" stroke="white"/>
<path d="M541.503 50.4661C541.193 50.2842 540.809 50.2828 540.497 50.4625L537.988 51.91C537.32 52.2948 537.32 53.2577 537.988 53.6425L540.497 55.0901C540.809 55.2697 541.193 55.2683 541.503 55.0865L543.971 53.6389C544.63 53.2525 544.63 52.3 543.971 51.9136L541.503 50.4661Z" fill="white" stroke="white"/>
<path d="M523.791 11.9238C524.343 11.9238 524.791 12.3715 524.791 12.9238V15.5374C524.791 16.0897 524.343 16.5374 523.791 16.5374H521.575C521.021 16.5374 520.573 16.9872 520.575 17.5408L520.644 37.7672C520.645 38.1221 520.834 38.4498 521.141 38.6282L529.107 43.2609C529.414 43.4393 529.792 43.4418 530.101 43.2673L533.313 41.4546C533.627 41.2773 534.012 41.2829 534.321 41.4692L536.81 42.9703C537.462 43.3638 537.452 44.3131 536.792 44.6932L530.107 48.5418C529.795 48.7214 529.41 48.7195 529.1 48.5369L516.697 41.2346C516.392 41.0549 516.204 40.7271 516.204 40.3729V12.9238C516.204 12.3715 516.652 11.9238 517.204 11.9238H523.791Z" fill="white" stroke="white"/>
</g>
<path d="M584.038 39.8572C583.44 39.8572 582.95 39.6758 582.566 39.3132C582.182 38.9292 581.99 38.4598 581.99 37.9052V19.3452H586.15V37.9052C586.15 38.4598 585.947 38.9292 585.542 39.3132C585.158 39.6758 584.657 39.8572 584.038 39.8572ZM576.966 21.1372C576.411 21.1372 575.942 20.9665 575.558 20.6252C575.195 20.2838 575.014 19.8358 575.014 19.2812C575.014 18.7265 575.195 18.2892 575.558 17.9692C575.942 17.6278 576.411 17.4572 576.966 17.4572H591.174C591.729 17.4572 592.187 17.6278 592.55 17.9692C592.934 18.3105 593.126 18.7585 593.126 19.3132C593.126 19.8678 592.934 20.3158 592.55 20.6572C592.187 20.9772 591.729 21.1372 591.174 21.1372H576.966ZM605.025 22.7372C605.58 22.7372 606.039 22.9292 606.401 23.3132C606.764 23.6758 606.945 24.1345 606.945 24.6892V32.8172C606.945 35.0785 606.316 36.8705 605.057 38.1932C603.799 39.5158 601.985 40.1772 599.617 40.1772C597.249 40.1772 595.436 39.5158 594.177 38.1932C592.94 36.8705 592.321 35.0785 592.321 32.8172V24.6892C592.321 24.1345 592.503 23.6758 592.865 23.3132C593.228 22.9292 593.687 22.7372 594.241 22.7372C594.796 22.7372 595.255 22.9292 595.617 23.3132C595.98 23.6758 596.161 24.1345 596.161 24.6892V32.8172C596.161 34.1185 596.449 35.0892 597.025 35.7292C597.601 36.3478 598.465 36.6572 599.617 36.6572C600.791 36.6572 601.665 36.3478 602.241 35.7292C602.817 35.0892 603.105 34.1185 603.105 32.8172V24.6892C603.105 24.1345 603.287 23.6758 603.649 23.3132C604.012 22.9292 604.471 22.7372 605.025 22.7372Z" fill="white"/>
<path d="M621.689 17.4252C621.987 17.4252 622.297 17.5105 622.617 17.6812C622.958 17.8305 623.214 18.0332 623.385 18.2892L631.161 30.2572L629.561 30.1932L637.529 18.2892C637.934 17.7132 638.457 17.4252 639.097 17.4252C639.609 17.4252 640.067 17.6065 640.473 17.9692C640.878 18.3318 641.081 18.8012 641.081 19.3772V37.9052C641.081 38.4598 640.899 38.9292 640.537 39.3132C640.174 39.6758 639.694 39.8572 639.097 39.8572C638.499 39.8572 638.009 39.6758 637.625 39.3132C637.262 38.9292 637.081 38.4598 637.081 37.9052V22.8332L638.329 23.1212L631.801 33.0732C631.609 33.3078 631.363 33.5105 631.065 33.6812C630.787 33.8518 630.499 33.9265 630.201 33.9052C629.923 33.9265 629.635 33.8518 629.337 33.6812C629.059 33.5105 628.825 33.3078 628.633 33.0732L622.521 23.4092L623.353 21.7132V37.9052C623.353 38.4598 623.182 38.9292 622.841 39.3132C622.499 39.6758 622.051 39.8572 621.497 39.8572C620.963 39.8572 620.526 39.6758 620.185 39.3132C619.843 38.9292 619.673 38.4598 619.673 37.9052V19.3772C619.673 18.8438 619.865 18.3852 620.249 18.0012C620.654 17.6172 621.134 17.4252 621.689 17.4252ZM662.179 31.3132C662.179 33.0625 661.785 34.6092 660.995 35.9532C660.227 37.2758 659.182 38.3105 657.859 39.0572C656.558 39.8038 655.097 40.1772 653.475 40.1772C651.854 40.1772 650.382 39.8038 649.059 39.0572C647.758 38.3105 646.713 37.2758 645.923 35.9532C645.155 34.6092 644.771 33.0625 644.771 31.3132C644.771 29.5638 645.155 28.0278 645.923 26.7052C646.713 25.3612 647.758 24.3158 649.059 23.5692C650.382 22.8012 651.854 22.4172 653.475 22.4172C655.097 22.4172 656.558 22.8012 657.859 23.5692C659.182 24.3158 660.227 25.3612 660.995 26.7052C661.785 28.0278 662.179 29.5638 662.179 31.3132ZM658.339 31.3132C658.339 30.2252 658.115 29.2865 657.667 28.4972C657.241 27.6865 656.654 27.0572 655.907 26.6092C655.182 26.1612 654.371 25.9372 653.475 25.9372C652.579 25.9372 651.758 26.1612 651.011 26.6092C650.286 27.0572 649.699 27.6865 649.251 28.4972C648.825 29.2865 648.611 30.2252 648.611 31.3132C648.611 32.3798 648.825 33.3185 649.251 34.1292C649.699 34.9185 650.286 35.5372 651.011 35.9852C651.758 36.4332 652.579 36.6572 653.475 36.6572C654.371 36.6572 655.182 36.4332 655.907 35.9852C656.654 35.5372 657.241 34.9185 657.667 34.1292C658.115 33.3185 658.339 32.3798 658.339 31.3132ZM674.532 22.4172C676.239 22.4172 677.497 22.8332 678.308 23.6652C679.119 24.4758 679.652 25.5318 679.908 26.8332L679.364 26.5452L679.62 26.0332C679.876 25.5425 680.271 25.0198 680.804 24.4652C681.337 23.8892 681.977 23.4092 682.724 23.0252C683.492 22.6198 684.345 22.4172 685.284 22.4172C686.82 22.4172 687.983 22.7478 688.772 23.4092C689.583 24.0705 690.137 24.9558 690.436 26.0652C690.735 27.1532 690.884 28.3692 690.884 29.7132V37.9052C690.884 38.4598 690.703 38.9292 690.34 39.3132C689.977 39.6758 689.519 39.8572 688.964 39.8572C688.409 39.8572 687.951 39.6758 687.588 39.3132C687.225 38.9292 687.044 38.4598 687.044 37.9052V29.7132C687.044 29.0092 686.959 28.3798 686.788 27.8252C686.617 27.2492 686.308 26.7905 685.86 26.4492C685.412 26.1078 684.772 25.9372 683.94 25.9372C683.129 25.9372 682.436 26.1078 681.86 26.4492C681.284 26.7905 680.847 27.2492 680.548 27.8252C680.271 28.3798 680.132 29.0092 680.132 29.7132V37.9052C680.132 38.4598 679.951 38.9292 679.588 39.3132C679.225 39.6758 678.767 39.8572 678.212 39.8572C677.657 39.8572 677.199 39.6758 676.836 39.3132C676.473 38.9292 676.292 38.4598 676.292 37.9052V29.7132C676.292 29.0092 676.207 28.3798 676.036 27.8252C675.865 27.2492 675.556 26.7905 675.108 26.4492C674.66 26.1078 674.02 25.9372 673.188 25.9372C672.377 25.9372 671.684 26.1078 671.108 26.4492C670.532 26.7905 670.095 27.2492 669.796 27.8252C669.519 28.3798 669.38 29.0092 669.38 29.7132V37.9052C669.38 38.4598 669.199 38.9292 668.836 39.3132C668.473 39.6758 668.015 39.8572 667.46 39.8572C666.905 39.8572 666.447 39.6758 666.084 39.3132C665.721 38.9292 665.54 38.4598 665.54 37.9052V24.6892C665.54 24.1345 665.721 23.6758 666.084 23.3132C666.447 22.9292 666.905 22.7372 667.46 22.7372C668.015 22.7372 668.473 22.9292 668.836 23.3132C669.199 23.6758 669.38 24.1345 669.38 24.6892V26.0652L668.9 25.9692C669.092 25.6065 669.359 25.2225 669.7 24.8172C670.041 24.3905 670.457 23.9958 670.948 23.6332C671.439 23.2705 671.983 22.9825 672.58 22.7692C673.177 22.5345 673.828 22.4172 674.532 22.4172ZM703.104 40.1772C701.291 40.1772 699.712 39.8038 698.368 39.0572C697.045 38.2892 696.021 37.2545 695.296 35.9532C694.592 34.6518 694.24 33.1798 694.24 31.5372C694.24 29.6172 694.624 27.9852 695.392 26.6412C696.181 25.2758 697.205 24.2305 698.464 23.5052C699.723 22.7798 701.056 22.4172 702.464 22.4172C703.552 22.4172 704.576 22.6412 705.536 23.0892C706.517 23.5372 707.381 24.1558 708.128 24.9452C708.875 25.7132 709.461 26.6092 709.888 27.6332C710.336 28.6572 710.56 29.7452 710.56 30.8972C710.539 31.4092 710.336 31.8252 709.952 32.1452C709.568 32.4652 709.12 32.6252 708.608 32.6252H696.384L695.424 29.4252H707.168L706.464 30.0652V29.2012C706.421 28.5825 706.197 28.0278 705.792 27.5372C705.408 27.0465 704.917 26.6625 704.32 26.3852C703.744 26.0865 703.125 25.9372 702.464 25.9372C701.824 25.9372 701.227 26.0225 700.672 26.1932C700.117 26.3638 699.637 26.6518 699.232 27.0572C698.827 27.4625 698.507 28.0065 698.272 28.6892C698.037 29.3718 697.92 30.2358 697.92 31.2812C697.92 32.4332 698.155 33.4145 698.624 34.2252C699.115 35.0145 699.733 35.6225 700.48 36.0492C701.248 36.4545 702.059 36.6572 702.912 36.6572C703.701 36.6572 704.331 36.5932 704.8 36.4652C705.269 36.3372 705.643 36.1878 705.92 36.0172C706.219 35.8252 706.485 35.6652 706.72 35.5372C707.104 35.3452 707.467 35.2492 707.808 35.2492C708.277 35.2492 708.661 35.4092 708.96 35.7292C709.28 36.0492 709.44 36.4225 709.44 36.8492C709.44 37.4252 709.141 37.9478 708.544 38.4172C707.989 38.8865 707.211 39.3025 706.208 39.6652C705.205 40.0065 704.171 40.1772 703.104 40.1772ZM723.067 22.4172C724.646 22.4172 725.84 22.7478 726.651 23.4092C727.483 24.0705 728.048 24.9558 728.347 26.0652C728.667 27.1532 728.827 28.3692 728.827 29.7132V37.9052C728.827 38.4598 728.646 38.9292 728.283 39.3132C727.92 39.6758 727.462 39.8572 726.907 39.8572C726.352 39.8572 725.894 39.6758 725.531 39.3132C725.168 38.9292 724.987 38.4598 724.987 37.9052V29.7132C724.987 29.0092 724.891 28.3798 724.699 27.8252C724.528 27.2492 724.208 26.7905 723.739 26.4492C723.27 26.1078 722.598 25.9372 721.723 25.9372C720.87 25.9372 720.144 26.1078 719.547 26.4492C718.971 26.7905 718.523 27.2492 718.203 27.8252C717.904 28.3798 717.755 29.0092 717.755 29.7132V37.9052C717.755 38.4598 717.574 38.9292 717.211 39.3132C716.848 39.6758 716.39 39.8572 715.835 39.8572C715.28 39.8572 714.822 39.6758 714.459 39.3132C714.096 38.9292 713.915 38.4598 713.915 37.9052V24.6892C713.915 24.1345 714.096 23.6758 714.459 23.3132C714.822 22.9292 715.28 22.7372 715.835 22.7372C716.39 22.7372 716.848 22.9292 717.211 23.3132C717.574 23.6758 717.755 24.1345 717.755 24.6892V26.0652L717.275 25.9692C717.467 25.6065 717.744 25.2225 718.107 24.8172C718.47 24.3905 718.896 23.9958 719.387 23.6332C719.878 23.2705 720.432 22.9825 721.051 22.7692C721.67 22.5345 722.342 22.4172 723.067 22.4172ZM733.17 23.0572H740.754C741.266 23.0572 741.692 23.2278 742.034 23.5692C742.375 23.9105 742.546 24.3372 742.546 24.8492C742.546 25.3398 742.375 25.7558 742.034 26.0972C741.692 26.4172 741.266 26.5772 740.754 26.5772H733.17C732.658 26.5772 732.231 26.4065 731.89 26.0652C731.548 25.7238 731.378 25.2972 731.378 24.7852C731.378 24.2945 731.548 23.8892 731.89 23.5692C732.231 23.2278 732.658 23.0572 733.17 23.0572ZM736.594 19.0572C737.148 19.0572 737.596 19.2492 737.938 19.6332C738.3 19.9958 738.482 20.4545 738.482 21.0092V35.2492C738.482 35.5478 738.535 35.7932 738.642 35.9852C738.77 36.1772 738.93 36.3158 739.122 36.4012C739.335 36.4865 739.559 36.5292 739.794 36.5292C740.05 36.5292 740.284 36.4865 740.498 36.4012C740.711 36.2945 740.956 36.2412 741.234 36.2412C741.532 36.2412 741.799 36.3798 742.034 36.6572C742.29 36.9345 742.418 37.3185 742.418 37.8092C742.418 38.4065 742.087 38.8972 741.426 39.2812C740.786 39.6652 740.092 39.8572 739.346 39.8572C738.898 39.8572 738.396 39.8252 737.842 39.7612C737.308 39.6758 736.796 39.4945 736.306 39.2172C735.836 38.9185 735.442 38.4705 735.122 37.8732C734.802 37.2758 734.642 36.4545 734.642 35.4092V21.0092C734.642 20.4545 734.823 19.9958 735.186 19.6332C735.57 19.2492 736.039 19.0572 736.594 19.0572ZM762.523 31.3132C762.523 33.0625 762.128 34.6092 761.339 35.9532C760.571 37.2758 759.526 38.3105 758.203 39.0572C756.902 39.8038 755.44 40.1772 753.819 40.1772C752.198 40.1772 750.726 39.8038 749.403 39.0572C748.102 38.3105 747.056 37.2758 746.267 35.9532C745.499 34.6092 745.115 33.0625 745.115 31.3132C745.115 29.5638 745.499 28.0278 746.267 26.7052C747.056 25.3612 748.102 24.3158 749.403 23.5692C750.726 22.8012 752.198 22.4172 753.819 22.4172C755.44 22.4172 756.902 22.8012 758.203 23.5692C759.526 24.3158 760.571 25.3612 761.339 26.7052C762.128 28.0278 762.523 29.5638 762.523 31.3132ZM758.683 31.3132C758.683 30.2252 758.459 29.2865 758.011 28.4972C757.584 27.6865 756.998 27.0572 756.251 26.6092C755.526 26.1612 754.715 25.9372 753.819 25.9372C752.923 25.9372 752.102 26.1612 751.355 26.6092C750.63 27.0572 750.043 27.6865 749.595 28.4972C749.168 29.2865 748.955 30.2252 748.955 31.3132C748.955 32.3798 749.168 33.3185 749.595 34.1292C750.043 34.9185 750.63 35.5372 751.355 35.9852C752.102 36.4332 752.923 36.6572 753.819 36.6572C754.715 36.6572 755.526 36.4332 756.251 35.9852C756.998 35.5372 757.584 34.9185 758.011 34.1292C758.459 33.3185 758.683 32.3798 758.683 31.3132Z" fill="white"/>
<defs>
<clipPath id="clip0_42_72">
<rect width="50" height="55.7143" fill="white" transform="translate(516.038)"/>
</clipPath>
</defs>
</svg>
