<svg width="247" height="56" viewBox="0 0 247 56" fill="none" xmlns="http://www.w3.org/2000/svg">
<g clip-path="url(#clip0_24_68)">
<path d="M27.1836 1.16681C27.1836 0.614524 26.7359 0.166809 26.1836 0.166809H23.7299C23.1825 0.166809 22.7368 0.60689 22.7299 1.15422L22.6069 10.9257C22.6 11.4773 22.1477 11.9191 21.5961 11.913L16.785 11.8605C16.2325 11.8544 15.7896 11.4015 15.796 10.849L15.8468 6.46164C15.8532 5.90487 15.4037 5.45007 14.8468 5.45007H12.4172C11.865 5.45007 11.4172 5.89779 11.4172 6.45007V33.8944C11.4172 34.2511 11.6073 34.5809 11.9161 34.7597L35.713 48.5421C36.023 48.7217 36.4053 48.7217 36.7153 48.5422L49.3351 41.2336C49.6438 41.0547 49.8339 40.725 49.8339 40.3682V12.9239C49.8339 12.3717 49.3862 11.9239 48.8339 11.9239H42.2475C41.6952 11.9239 41.2475 12.3717 41.2475 12.9239V15.5375C41.2475 16.0898 41.6952 16.5375 42.2475 16.5375H44.3186C44.8709 16.5375 45.3186 16.9852 45.3186 17.5375V37.7603C45.3186 38.119 45.1265 38.4502 44.8152 38.6283L36.7149 43.2625C36.405 43.4399 36.0241 43.4385 35.7154 43.2589L16.5036 32.0812C16.1959 31.9022 16.0065 31.573 16.0065 31.2169V17.5375C16.0065 16.9852 16.4542 16.5375 17.0065 16.5375H32.9935C33.5458 16.5375 33.9935 16.9852 33.9935 17.5375V31.2206C33.9935 31.5747 33.8063 31.9023 33.5012 32.0821L29.0527 34.7037C28.388 35.0954 28.3985 36.0605 29.0716 36.4376L31.5676 37.8361C31.878 38.0101 32.2575 38.006 32.5641 37.8253L38.0165 34.6121C38.3216 34.4323 38.5088 34.1047 38.5088 33.7506V6.45007C38.5088 5.89779 38.0611 5.45007 37.5088 5.45007H34.9935C34.4412 5.45007 33.9935 5.89779 33.9935 6.45007V10.9239C33.9935 11.4762 33.5458 11.9239 32.9935 11.9239H28.1836C27.6313 11.9239 27.1836 11.4762 27.1836 10.9239V1.16681Z" fill="black" stroke="black"/>
<path d="M25.4647 50.4661C25.1545 50.2842 24.7706 50.2828 24.4592 50.4625L21.9495 51.91C21.2824 52.2948 21.2823 53.2577 21.9495 53.6425L24.4592 55.0901C24.7706 55.2697 25.1545 55.2683 25.4647 55.0865L27.9332 53.6389C28.592 53.2525 28.592 52.3 27.9332 51.9136L25.4647 50.4661Z" fill="black" stroke="black"/>
<path d="M7.75252 11.924C8.3048 11.924 8.75252 12.3717 8.75252 12.924V15.5375C8.75252 16.0898 8.3048 16.5375 7.75252 16.5375H5.53675C4.98314 16.5375 4.53487 16.9873 4.53675 17.5409L4.60542 37.7673C4.60663 38.1222 4.79587 38.4499 5.10269 38.6283L13.0686 43.261C13.3754 43.4395 13.7537 43.4419 14.0628 43.2675L17.2748 41.4547C17.5889 41.2775 17.974 41.283 18.2828 41.4693L20.7714 42.9704C21.4237 43.3639 21.414 44.3133 20.7538 44.6934L14.0684 48.542C13.7565 48.7215 13.3723 48.7196 13.0622 48.537L0.658796 41.2347C0.353539 41.055 0.166138 40.7272 0.166138 40.373V12.924C0.166138 12.3717 0.613853 11.924 1.16614 11.924H7.75252Z" fill="black" stroke="black"/>
</g>
<path d="M67.9996 39.8571C67.4023 39.8571 66.9116 39.6758 66.5276 39.3131C66.1436 38.9291 65.9516 38.4598 65.9516 37.9051V19.3451H70.1116V37.9051C70.1116 38.4598 69.909 38.9291 69.5036 39.3131C69.1196 39.6758 68.6183 39.8571 67.9996 39.8571ZM60.9276 21.1371C60.373 21.1371 59.9036 20.9665 59.5196 20.6251C59.157 20.2838 58.9756 19.8358 58.9756 19.2811C58.9756 18.7265 59.157 18.2891 59.5196 17.9691C59.9036 17.6278 60.373 17.4571 60.9276 17.4571H75.1356C75.6903 17.4571 76.149 17.6278 76.5116 17.9691C76.8956 18.3105 77.0876 18.7585 77.0876 19.3131C77.0876 19.8678 76.8956 20.3158 76.5116 20.6571C76.149 20.9771 75.6903 21.1371 75.1356 21.1371H60.9276ZM88.9871 22.7371C89.5418 22.7371 90.0005 22.9291 90.3631 23.3131C90.7258 23.6758 90.9071 24.1345 90.9071 24.6891V32.8171C90.9071 35.0785 90.2778 36.8705 89.0191 38.1931C87.7605 39.5158 85.9471 40.1771 83.5791 40.1771C81.2111 40.1771 79.3978 39.5158 78.1391 38.1931C76.9018 36.8705 76.2831 35.0785 76.2831 32.8171V24.6891C76.2831 24.1345 76.4645 23.6758 76.8271 23.3131C77.1898 22.9291 77.6485 22.7371 78.2031 22.7371C78.7578 22.7371 79.2165 22.9291 79.5791 23.3131C79.9418 23.6758 80.1231 24.1345 80.1231 24.6891V32.8171C80.1231 34.1185 80.4111 35.0891 80.9871 35.7291C81.5631 36.3478 82.4271 36.6571 83.5791 36.6571C84.7525 36.6571 85.6271 36.3478 86.2031 35.7291C86.7791 35.0891 87.0671 34.1185 87.0671 32.8171V24.6891C87.0671 24.1345 87.2485 23.6758 87.6111 23.3131C87.9738 22.9291 88.4325 22.7371 88.9871 22.7371Z" fill="black"/>
<path d="M105.65 17.4251C105.949 17.4251 106.258 17.5105 106.578 17.6811C106.92 17.8305 107.176 18.0331 107.346 18.2891L115.122 30.2571L113.522 30.1931L121.49 18.2891C121.896 17.7131 122.418 17.4251 123.058 17.4251C123.57 17.4251 124.029 17.6065 124.434 17.9691C124.84 18.3318 125.042 18.8011 125.042 19.3771V37.9051C125.042 38.4598 124.861 38.9291 124.498 39.3131C124.136 39.6758 123.656 39.8571 123.058 39.8571C122.461 39.8571 121.97 39.6758 121.586 39.3131C121.224 38.9291 121.042 38.4598 121.042 37.9051V22.8331L122.29 23.1211L115.762 33.0731C115.57 33.3078 115.325 33.5105 115.026 33.6811C114.749 33.8518 114.461 33.9265 114.162 33.9051C113.885 33.9265 113.597 33.8518 113.298 33.6811C113.021 33.5105 112.786 33.3078 112.594 33.0731L106.482 23.4091L107.314 21.7131V37.9051C107.314 38.4598 107.144 38.9291 106.802 39.3131C106.461 39.6758 106.013 39.8571 105.458 39.8571C104.925 39.8571 104.488 39.6758 104.146 39.3131C103.805 38.9291 103.634 38.4598 103.634 37.9051V19.3771C103.634 18.8438 103.826 18.3851 104.21 18.0011C104.616 17.6171 105.096 17.4251 105.65 17.4251ZM146.141 31.3131C146.141 33.0625 145.746 34.6091 144.957 35.9531C144.189 37.2758 143.144 38.3105 141.821 39.0571C140.52 39.8038 139.058 40.1771 137.437 40.1771C135.816 40.1771 134.344 39.8038 133.021 39.0571C131.72 38.3105 130.674 37.2758 129.885 35.9531C129.117 34.6091 128.733 33.0625 128.733 31.3131C128.733 29.5638 129.117 28.0278 129.885 26.7051C130.674 25.3611 131.72 24.3158 133.021 23.5691C134.344 22.8011 135.816 22.4171 137.437 22.4171C139.058 22.4171 140.52 22.8011 141.821 23.5691C143.144 24.3158 144.189 25.3611 144.957 26.7051C145.746 28.0278 146.141 29.5638 146.141 31.3131ZM142.301 31.3131C142.301 30.2251 142.077 29.2865 141.629 28.4971C141.202 27.6865 140.616 27.0571 139.869 26.6091C139.144 26.1611 138.333 25.9371 137.437 25.9371C136.541 25.9371 135.72 26.1611 134.973 26.6091C134.248 27.0571 133.661 27.6865 133.213 28.4971C132.786 29.2865 132.573 30.2251 132.573 31.3131C132.573 32.3798 132.786 33.3185 133.213 34.1291C133.661 34.9185 134.248 35.5371 134.973 35.9851C135.72 36.4331 136.541 36.6571 137.437 36.6571C138.333 36.6571 139.144 36.4331 139.869 35.9851C140.616 35.5371 141.202 34.9185 141.629 34.1291C142.077 33.3185 142.301 32.3798 142.301 31.3131ZM158.494 22.4171C160.201 22.4171 161.459 22.8331 162.27 23.6651C163.081 24.4758 163.614 25.5318 163.87 26.8331L163.326 26.5451L163.582 26.0331C163.838 25.5425 164.233 25.0198 164.766 24.4651C165.299 23.8891 165.939 23.4091 166.686 23.0251C167.454 22.6198 168.307 22.4171 169.246 22.4171C170.782 22.4171 171.945 22.7478 172.734 23.4091C173.545 24.0705 174.099 24.9558 174.398 26.0651C174.697 27.1531 174.846 28.3691 174.846 29.7131V37.9051C174.846 38.4598 174.665 38.9291 174.302 39.3131C173.939 39.6758 173.481 39.8571 172.926 39.8571C172.371 39.8571 171.913 39.6758 171.55 39.3131C171.187 38.9291 171.006 38.4598 171.006 37.9051V29.7131C171.006 29.0091 170.921 28.3798 170.75 27.8251C170.579 27.2491 170.27 26.7905 169.822 26.4491C169.374 26.1078 168.734 25.9371 167.902 25.9371C167.091 25.9371 166.398 26.1078 165.822 26.4491C165.246 26.7905 164.809 27.2491 164.51 27.8251C164.233 28.3798 164.094 29.0091 164.094 29.7131V37.9051C164.094 38.4598 163.913 38.9291 163.55 39.3131C163.187 39.6758 162.729 39.8571 162.174 39.8571C161.619 39.8571 161.161 39.6758 160.798 39.3131C160.435 38.9291 160.254 38.4598 160.254 37.9051V29.7131C160.254 29.0091 160.169 28.3798 159.998 27.8251C159.827 27.2491 159.518 26.7905 159.07 26.4491C158.622 26.1078 157.982 25.9371 157.15 25.9371C156.339 25.9371 155.646 26.1078 155.07 26.4491C154.494 26.7905 154.057 27.2491 153.758 27.8251C153.481 28.3798 153.342 29.0091 153.342 29.7131V37.9051C153.342 38.4598 153.161 38.9291 152.798 39.3131C152.435 39.6758 151.977 39.8571 151.422 39.8571C150.867 39.8571 150.409 39.6758 150.046 39.3131C149.683 38.9291 149.502 38.4598 149.502 37.9051V24.6891C149.502 24.1345 149.683 23.6758 150.046 23.3131C150.409 22.9291 150.867 22.7371 151.422 22.7371C151.977 22.7371 152.435 22.9291 152.798 23.3131C153.161 23.6758 153.342 24.1345 153.342 24.6891V26.0651L152.862 25.9691C153.054 25.6065 153.321 25.2225 153.662 24.8171C154.003 24.3905 154.419 23.9958 154.91 23.6331C155.401 23.2705 155.945 22.9825 156.542 22.7691C157.139 22.5345 157.79 22.4171 158.494 22.4171ZM187.066 40.1771C185.253 40.1771 183.674 39.8038 182.33 39.0571C181.007 38.2891 179.983 37.2545 179.258 35.9531C178.554 34.6518 178.202 33.1798 178.202 31.5371C178.202 29.6171 178.586 27.9851 179.354 26.6411C180.143 25.2758 181.167 24.2305 182.426 23.5051C183.685 22.7798 185.018 22.4171 186.426 22.4171C187.514 22.4171 188.538 22.6411 189.498 23.0891C190.479 23.5371 191.343 24.1558 192.09 24.9451C192.837 25.7131 193.423 26.6091 193.85 27.6331C194.298 28.6571 194.522 29.7451 194.522 30.8971C194.501 31.4091 194.298 31.8251 193.914 32.1451C193.53 32.4651 193.082 32.6251 192.57 32.6251H180.346L179.386 29.4251H191.13L190.426 30.0651V29.2011C190.383 28.5825 190.159 28.0278 189.754 27.5371C189.37 27.0465 188.879 26.6625 188.282 26.3851C187.706 26.0865 187.087 25.9371 186.426 25.9371C185.786 25.9371 185.189 26.0225 184.634 26.1931C184.079 26.3638 183.599 26.6518 183.194 27.0571C182.789 27.4625 182.469 28.0065 182.234 28.6891C181.999 29.3718 181.882 30.2358 181.882 31.2811C181.882 32.4331 182.117 33.4145 182.586 34.2251C183.077 35.0145 183.695 35.6225 184.442 36.0491C185.21 36.4545 186.021 36.6571 186.874 36.6571C187.663 36.6571 188.293 36.5931 188.762 36.4651C189.231 36.3371 189.605 36.1878 189.882 36.0171C190.181 35.8251 190.447 35.6651 190.682 35.5371C191.066 35.3451 191.429 35.2491 191.77 35.2491C192.239 35.2491 192.623 35.4091 192.922 35.7291C193.242 36.0491 193.402 36.4225 193.402 36.8491C193.402 37.4251 193.103 37.9478 192.506 38.4171C191.951 38.8865 191.173 39.3025 190.17 39.6651C189.167 40.0065 188.133 40.1771 187.066 40.1771ZM207.029 22.4171C208.608 22.4171 209.802 22.7478 210.613 23.4091C211.445 24.0705 212.01 24.9558 212.309 26.0651C212.629 27.1531 212.789 28.3691 212.789 29.7131V37.9051C212.789 38.4598 212.608 38.9291 212.245 39.3131C211.882 39.6758 211.424 39.8571 210.869 39.8571C210.314 39.8571 209.856 39.6758 209.493 39.3131C209.13 38.9291 208.949 38.4598 208.949 37.9051V29.7131C208.949 29.0091 208.853 28.3798 208.661 27.8251C208.49 27.2491 208.17 26.7905 207.701 26.4491C207.232 26.1078 206.56 25.9371 205.685 25.9371C204.832 25.9371 204.106 26.1078 203.509 26.4491C202.933 26.7905 202.485 27.2491 202.165 27.8251C201.866 28.3798 201.717 29.0091 201.717 29.7131V37.9051C201.717 38.4598 201.536 38.9291 201.173 39.3131C200.81 39.6758 200.352 39.8571 199.797 39.8571C199.242 39.8571 198.784 39.6758 198.421 39.3131C198.058 38.9291 197.877 38.4598 197.877 37.9051V24.6891C197.877 24.1345 198.058 23.6758 198.421 23.3131C198.784 22.9291 199.242 22.7371 199.797 22.7371C200.352 22.7371 200.81 22.9291 201.173 23.3131C201.536 23.6758 201.717 24.1345 201.717 24.6891V26.0651L201.237 25.9691C201.429 25.6065 201.706 25.2225 202.069 24.8171C202.432 24.3905 202.858 23.9958 203.349 23.6331C203.84 23.2705 204.394 22.9825 205.013 22.7691C205.632 22.5345 206.304 22.4171 207.029 22.4171ZM217.131 23.0571H224.715C225.227 23.0571 225.654 23.2278 225.995 23.5691C226.337 23.9105 226.507 24.3371 226.507 24.8491C226.507 25.3398 226.337 25.7558 225.995 26.0971C225.654 26.4171 225.227 26.5771 224.715 26.5771H217.131C216.619 26.5771 216.193 26.4065 215.851 26.0651C215.51 25.7238 215.339 25.2971 215.339 24.7851C215.339 24.2945 215.51 23.8891 215.851 23.5691C216.193 23.2278 216.619 23.0571 217.131 23.0571ZM220.555 19.0571C221.11 19.0571 221.558 19.2491 221.899 19.6331C222.262 19.9958 222.443 20.4545 222.443 21.0091V35.2491C222.443 35.5478 222.497 35.7931 222.603 35.9851C222.731 36.1771 222.891 36.3158 223.083 36.4011C223.297 36.4865 223.521 36.5291 223.755 36.5291C224.011 36.5291 224.246 36.4865 224.459 36.4011C224.673 36.2945 224.918 36.2411 225.195 36.2411C225.494 36.2411 225.761 36.3798 225.995 36.6571C226.251 36.9345 226.379 37.3185 226.379 37.8091C226.379 38.4065 226.049 38.8971 225.387 39.2811C224.747 39.6651 224.054 39.8571 223.307 39.8571C222.859 39.8571 222.358 39.8251 221.803 39.7611C221.27 39.6758 220.758 39.4945 220.267 39.2171C219.798 38.9185 219.403 38.4705 219.083 37.8731C218.763 37.2758 218.603 36.4545 218.603 35.4091V21.0091C218.603 20.4545 218.785 19.9958 219.147 19.6331C219.531 19.2491 220.001 19.0571 220.555 19.0571ZM246.485 31.3131C246.485 33.0625 246.09 34.6091 245.301 35.9531C244.533 37.2758 243.488 38.3105 242.165 39.0571C240.864 39.8038 239.402 40.1771 237.781 40.1771C236.16 40.1771 234.688 39.8038 233.365 39.0571C232.064 38.3105 231.018 37.2758 230.229 35.9531C229.461 34.6091 229.077 33.0625 229.077 31.3131C229.077 29.5638 229.461 28.0278 230.229 26.7051C231.018 25.3611 232.064 24.3158 233.365 23.5691C234.688 22.8011 236.16 22.4171 237.781 22.4171C239.402 22.4171 240.864 22.8011 242.165 23.5691C243.488 24.3158 244.533 25.3611 245.301 26.7051C246.09 28.0278 246.485 29.5638 246.485 31.3131ZM242.645 31.3131C242.645 30.2251 242.421 29.2865 241.973 28.4971C241.546 27.6865 240.96 27.0571 240.213 26.6091C239.488 26.1611 238.677 25.9371 237.781 25.9371C236.885 25.9371 236.064 26.1611 235.317 26.6091C234.592 27.0571 234.005 27.6865 233.557 28.4971C233.13 29.2865 232.917 30.2251 232.917 31.3131C232.917 32.3798 233.13 33.3185 233.557 34.1291C234.005 34.9185 234.592 35.5371 235.317 35.9851C236.064 36.4331 236.885 36.6571 237.781 36.6571C238.677 36.6571 239.488 36.4331 240.213 35.9851C240.96 35.5371 241.546 34.9185 241.973 34.1291C242.421 33.3185 242.645 32.3798 242.645 31.3131Z" fill="black"/>
<defs>
<clipPath id="clip0_24_68">
<rect width="50" height="55.7143" fill="white"/>
</clipPath>
</defs>
</svg>
