<svg width="111" height="110" viewBox="0 0 111 110" fill="none" xmlns="http://www.w3.org/2000/svg">
<path d="M47.4914 33.0912C50.4343 25.7547 51.906 22.0864 54.2962 21.5781C54.9251 21.4444 55.5745 21.4444 56.2034 21.5781C58.5936 22.0864 60.0653 25.7547 63.0082 33.0912C64.6816 37.2633 65.5185 39.3493 67.0842 40.7682C67.5233 41.1662 67.9999 41.5206 68.5078 41.8265C70.3173 42.9172 72.5764 43.1196 77.0946 43.5242C84.7429 44.2092 88.5672 44.5517 89.735 46.732C89.977 47.1839 90.1416 47.6725 90.2218 48.1785C90.6086 50.6219 87.7972 53.1794 82.1743 58.2949L80.6133 59.7157C77.9843 62.1073 76.6702 63.3031 75.9099 64.7954C75.4538 65.6905 75.1481 66.6549 75.0046 67.649C74.7659 69.3068 75.1508 71.0416 75.9204 74.5112L76.1954 75.7509C77.5759 81.9728 78.2661 85.0835 77.4045 86.613C76.6308 87.9866 75.2049 88.8657 73.6301 88.9409C71.877 89.0247 69.4066 87.0117 64.4657 82.9857C61.2106 80.3334 59.5831 79.007 57.7764 78.489C56.1254 78.0156 54.3741 78.0156 52.7232 78.489C50.9165 79.007 49.2889 80.3334 46.0337 82.9857C41.093 87.0117 38.6226 89.0247 36.8694 88.9409C35.2946 88.8657 33.869 87.9866 33.095 86.613C32.2333 85.0835 32.9236 81.9728 34.304 75.7509L34.5791 74.5112C35.3489 71.0416 35.7338 69.3068 35.4949 67.649C35.3517 66.6549 35.0459 65.6905 34.5898 64.7954C33.8296 63.3031 32.5152 62.1073 29.8864 59.7157L28.325 58.2949C22.7023 53.1794 19.8908 50.6219 20.278 48.1785C20.3582 47.6725 20.5227 47.1839 20.7645 46.732C21.9323 44.5517 25.7566 44.2092 33.4051 43.5242C37.9233 43.1196 40.1824 42.9172 41.992 41.8265C42.4996 41.5206 42.9764 41.1662 43.4155 40.7682C44.9812 39.3493 45.818 37.2633 47.4914 33.0912Z" fill="#2F7BBD" stroke="#2F7BBD" stroke-width="2"/>
</svg>
