<svg width="44" height="44" viewBox="0 0 44 44" fill="none" xmlns="http://www.w3.org/2000/svg">
<path d="M35.915 12.2648C34.0875 11.863 32.4342 10.8925 31.1925 9.49264C29.9508 8.09281 29.1844 6.3356 29.0034 4.47317V3.6665H22.6784V28.7282C22.6796 29.8402 22.331 30.9244 21.6818 31.8273C21.0327 32.7302 20.1159 33.4059 19.0613 33.7588C18.0067 34.1117 16.8679 34.1238 15.8061 33.7934C14.7442 33.4631 13.8133 32.807 13.145 31.9182C12.5463 31.1314 12.1797 30.1928 12.0867 29.2085C11.9936 28.2242 12.1778 27.2335 12.6184 26.3485C13.0591 25.4634 13.7385 24.7193 14.58 24.2003C15.4215 23.6813 16.3914 23.408 17.38 23.4115C17.9268 23.4084 18.4708 23.4887 18.9934 23.6498V17.2332C18.3853 17.1579 17.7726 17.1272 17.16 17.1415C14.9038 17.2018 12.714 17.9187 10.859 19.2045C9.00398 20.4903 7.56415 22.2891 6.71584 24.3807C5.86754 26.4723 5.64757 28.7658 6.08287 30.9805C6.51817 33.1952 7.58986 35.2349 9.16669 36.8498C10.7827 38.4929 12.8508 39.6184 15.108 40.0835C17.3652 40.5485 19.7097 40.332 21.8436 39.4616C23.9775 38.5911 25.8044 37.106 27.0923 35.1948C28.3802 33.2836 29.0709 31.0328 29.0767 28.7282V15.8948C31.6277 17.7171 34.6867 18.6919 37.8217 18.6815V12.4482C37.2059 12.4507 36.5915 12.3893 35.9884 12.2648H35.915Z" fill="white"/>
</svg>
